@startuml
skinparam state {
    StartColor PaleGreen
    EndColor Red
    BackgroundColor LightGrey
'    BackgroundColor<<Junction>> GreenYellow
    BorderColor Black
}
[*] --> Source
Source -down-> AskFlow
AskFlow -right-> TargetActor : ask and response\n e.g. timeout will fail the stream
AskFlow --> Sink : continues
@enduml